<svg width="31" height="31" viewBox="0 0 31 31" fill="none" xmlns="http://www.w3.org/2000/svg">
<path d="M13.6812 6.25929C14.2139 4.06722 17.3381 4.06722 17.8709 6.25929C17.9508 6.5886 18.1075 6.89442 18.3283 7.15185C18.549 7.40928 18.8275 7.61105 19.1411 7.74074C19.4547 7.87044 19.7946 7.92438 20.1331 7.89819C20.4715 7.87199 20.799 7.76641 21.0889 7.59001C23.0186 6.41658 25.2286 8.62114 24.0529 10.5486C23.8765 10.8377 23.7708 11.1644 23.7447 11.502C23.7185 11.8396 23.7725 12.1786 23.9023 12.4914C24.032 12.8043 24.234 13.0822 24.4916 13.3025C24.7492 13.5227 25.0553 13.6793 25.3849 13.7593C27.5811 14.2911 27.5811 17.4094 25.3849 17.9412C25.055 18.021 24.7486 18.1774 24.4907 18.3977C24.2328 18.618 24.0306 18.896 23.9007 19.2091C23.7707 19.5221 23.7167 19.8613 23.7429 20.1992C23.7692 20.537 23.875 20.8638 24.0517 21.1532C25.2273 23.0793 23.0186 25.2851 21.0876 24.1117C20.7979 23.9356 20.4706 23.8301 20.1324 23.804C19.7942 23.7779 19.4545 23.8318 19.1411 23.9613C18.8277 24.0909 18.5493 24.2924 18.3286 24.5495C18.1079 24.8067 17.951 25.1122 17.8709 25.4412C17.3381 27.6333 14.2139 27.6333 13.6812 25.4412C13.6012 25.1119 13.4445 24.8061 13.2238 24.5486C13.003 24.2912 12.7245 24.0894 12.4109 23.9597C12.0973 23.83 11.7574 23.7761 11.419 23.8023C11.0805 23.8285 10.753 23.9341 10.4632 24.1105C8.53341 25.2839 6.32348 23.0793 7.49911 21.1519C7.67558 20.8627 7.7812 20.5361 7.80738 20.1985C7.83356 19.8609 7.77956 19.5219 7.64978 19.209C7.51999 18.8962 7.31809 18.6183 7.06046 18.398C6.80284 18.1777 6.49678 18.0212 6.16715 17.9412C3.97098 17.4094 3.97098 14.2911 6.16715 13.7593C6.49707 13.6795 6.80346 13.5231 7.06137 13.3027C7.31929 13.0824 7.52144 12.8044 7.65137 12.4914C7.78131 12.1784 7.83535 11.8391 7.80911 11.5013C7.78287 11.1635 7.67708 10.8366 7.50036 10.5473C6.32473 8.62114 8.53341 6.41533 10.4644 7.58876C11.7101 8.34775 13.336 7.67615 13.6812 6.25929Z" stroke="#929292" stroke-width="2" stroke-linecap="round" stroke-linejoin="round"/>
<path d="M19.5279 15.8502C19.5279 16.8435 19.1326 17.796 18.429 18.4983C17.7254 19.2007 16.771 19.5952 15.7759 19.5952C14.7808 19.5952 13.8265 19.2007 13.1229 18.4983C12.4192 17.796 12.0239 16.8435 12.0239 15.8502C12.0239 14.857 12.4192 13.9044 13.1229 13.2021C13.8265 12.4998 14.7808 12.1052 15.7759 12.1052C16.771 12.1052 17.7254 12.4998 18.429 13.2021C19.1326 13.9044 19.5279 14.857 19.5279 15.8502Z" stroke="#929292" stroke-width="2" stroke-linecap="round" stroke-linejoin="round"/>
</svg>
