<svg width="23" height="27" viewBox="0 0 23 27" fill="none" xmlns="http://www.w3.org/2000/svg">
<path d="M11.228 18.8221C14.1269 18.8122 16.6854 19.0317 18.4893 19.6339C19.3863 19.9333 20.0226 20.3037 20.4262 20.7207C20.8062 21.1134 21.0119 21.5774 21.014 22.1864C21.0161 22.7935 20.8132 23.2558 20.435 23.6483C20.0328 24.0657 19.3965 24.4375 18.4988 24.7398C16.6938 25.3477 14.1357 25.5769 11.2513 25.5868C8.3531 25.5967 5.79456 25.3772 3.99046 24.775C3.09339 24.4756 2.45691 24.1051 2.05326 23.6881C1.67317 23.2954 1.46741 22.8314 1.46532 22.2226C1.46323 21.6154 1.66616 21.1531 2.04433 20.7606C2.44654 20.3432 3.08283 19.9714 3.98054 19.6691C5.78556 19.0612 8.34362 18.832 11.228 18.8221ZM11.1698 1.90691C14.6219 1.89507 17.3087 4.50564 17.3196 7.67957C17.3305 10.8537 14.6615 13.4837 11.2097 13.4955C7.7591 13.5074 5.07081 10.8956 5.05988 7.7216C5.04896 4.54779 7.71897 1.91874 11.1698 1.90691Z" stroke="#929292" stroke-width="2"/>
</svg>
