<svg width="27" height="27" viewBox="0 0 27 27" fill="none" xmlns="http://www.w3.org/2000/svg">
<g clip-path="url(#clip0_923_22251)">
<path d="M20.4922 13.7099H15.4398C14.8712 13.7099 14.3259 13.4844 13.9238 13.0831C13.5217 12.6818 13.2958 12.1375 13.2958 11.5699V6.51308C13.2973 6.02086 13.1853 5.5349 12.9686 5.09277C12.7518 4.65064 12.4361 4.26418 12.0459 3.96327C11.6761 3.67096 11.2439 3.46741 10.7827 3.36834C10.3216 3.26926 9.84378 3.27732 9.38624 3.39189C6.78734 4.03583 4.48648 5.54587 2.86416 7.67228C1.24184 9.79869 0.395242 12.4141 0.464371 15.086C0.533499 17.7579 1.51421 20.3262 3.24433 22.3662C4.97445 24.4062 7.35033 25.7957 9.97906 26.3049C12.9347 26.8695 15.9947 26.285 18.5326 24.6709C21.0704 23.0568 22.894 20.5354 23.6299 17.6229C23.7451 17.1656 23.7535 16.688 23.6544 16.227C23.5554 15.766 23.3515 15.3338 23.0585 14.9639C22.7535 14.575 22.3641 14.26 21.9196 14.0428C21.4751 13.8256 20.9871 13.7118 20.4922 13.7099ZM21.5513 17.0997C21.1408 18.7495 20.2987 20.2608 19.1111 21.4792C17.9234 22.6975 16.4328 23.5792 14.7918 24.0339C13.1508 24.4886 11.4182 24.5001 9.7713 24.0672C8.12438 23.6342 6.62221 22.7724 5.41845 21.5699C4.21469 20.3674 3.35254 18.8674 2.92017 17.2231C2.48781 15.5789 2.50075 13.8496 2.95767 12.212C3.41459 10.5744 4.2991 9.08738 5.52072 7.90295C6.74234 6.71852 8.25723 5.87922 9.91045 5.4709C10.0519 5.43563 10.1996 5.43391 10.3418 5.46587C10.4841 5.49783 10.6168 5.56258 10.7295 5.65494C10.8625 5.75617 10.9704 5.88663 11.0447 6.03619C11.1191 6.18575 11.1579 6.3504 11.1583 6.51736V11.5699C11.1583 12.705 11.61 13.7937 12.4142 14.5963C13.2183 15.399 14.309 15.8499 15.4463 15.8499H20.4975C20.6663 15.8506 20.8326 15.8895 20.9842 15.9636C21.1357 16.0377 21.2684 16.1452 21.3723 16.2779C21.4634 16.3919 21.5269 16.5254 21.5577 16.668C21.5886 16.8105 21.586 16.9583 21.5502 17.0997H21.5513Z" fill="#929292"/>
<path d="M25.7864 8.83748C25.2929 7.02648 24.3341 5.3755 23.005 4.04792C21.6759 2.72035 20.0225 1.7622 18.2085 1.2683C18.0183 1.21727 17.8222 1.19137 17.6253 1.19126C17.342 1.18857 17.0611 1.24194 16.7986 1.34828C16.5361 1.45463 16.2973 1.61183 16.0961 1.81082C15.8948 2.0098 15.7351 2.24662 15.6261 2.50759C15.517 2.76856 15.4609 3.04851 15.4609 3.33126V8.36026C15.4609 9.2116 15.7998 10.0281 16.4029 10.6301C17.006 11.2321 17.824 11.5703 18.6769 11.5703H23.7357C24.0666 11.5671 24.3923 11.4878 24.6875 11.3386C24.9827 11.1894 25.2395 10.9742 25.4379 10.7099C25.6362 10.4455 25.7709 10.1391 25.8313 9.81432C25.8918 9.48959 25.8764 9.15532 25.7864 8.83748ZM23.1086 9.43026H18.6726C18.3883 9.43026 18.1157 9.31753 17.9146 9.11686C17.7136 8.9162 17.6006 8.64404 17.6006 8.36026L17.5921 3.33875C17.5999 3.33309 17.6092 3.32975 17.6189 3.32912H17.6467C19.1069 3.72618 20.4372 4.49853 21.5049 5.5691C22.5726 6.63967 23.3403 7.97101 23.7314 9.43026H23.1086Z" fill="#929292"/>
</g>
<defs>
<clipPath id="clip0_923_22251">
<rect width="25.728" height="25.68" fill="white" transform="translate(0.432129 0.870117)"/>
</clipPath>
</defs>
</svg>
