<svg width="18" height="18" viewBox="0 0 18 18" fill="none" xmlns="http://www.w3.org/2000/svg">
<path d="M16.4414 17.5019C14.5546 17.5019 12.6601 17.0644 10.7578 16.1894C8.85938 15.3105 7.11328 14.0722 5.51953 12.4746C3.92578 10.8808 2.68946 9.13477 1.81055 7.23633C0.935547 5.33789 0.498047 3.44532 0.498047 1.5586C0.498047 1.25781 0.597656 1.00586 0.796875 0.802735C1 0.599609 1.25195 0.498047 1.55274 0.498047H4.81055C5.06446 0.498047 5.28711 0.582031 5.47852 0.75C5.67383 0.914063 5.79688 1.11719 5.84766 1.35937L6.42188 4.30078C6.46094 4.57422 6.45117 4.8086 6.39258 5.00391C6.33789 5.19922 6.23828 5.36328 6.09375 5.4961L3.78516 7.7461C4.15625 8.42578 4.58008 9.07032 5.05664 9.67969C5.53321 10.2852 6.05078 10.8652 6.60938 11.4199C7.15625 11.9668 7.73828 12.4765 8.35547 12.9492C8.97657 13.4179 9.64453 13.8554 10.3594 14.2617L12.6035 11.9941C12.7597 11.8339 12.9492 11.7207 13.1718 11.6542C13.3945 11.5878 13.625 11.5722 13.8632 11.6074L16.6406 12.1699C16.8945 12.2363 17.1015 12.3652 17.2617 12.5566C17.4218 12.748 17.5019 12.9648 17.5019 13.207V16.4472C17.5019 16.748 17.4003 17 17.1972 17.2031C16.9941 17.4023 16.7421 17.5019 16.4414 17.5019ZM3.07032 6.32813L4.85743 4.61719C4.88867 4.59375 4.90821 4.56055 4.91602 4.51758C4.92774 4.47071 4.92774 4.42774 4.91602 4.38867L4.48243 2.15625C4.4668 2.10157 4.44336 2.0625 4.41211 2.03907C4.38086 2.01172 4.33985 1.99805 4.28907 1.99805H2.15039C2.11133 1.99805 2.07813 2.01172 2.05078 2.03907C2.02735 2.0625 2.01563 2.09375 2.01563 2.13282C2.06641 2.81641 2.17774 3.51172 2.34961 4.21875C2.52149 4.92188 2.76172 5.625 3.07032 6.32813ZM11.7714 14.9707C12.4355 15.2792 13.1269 15.5156 13.8457 15.6796C14.5683 15.8437 15.2421 15.9394 15.8671 15.9668C15.9062 15.9668 15.9375 15.955 15.9609 15.9316C15.9882 15.9042 16.0019 15.871 16.0019 15.832V13.7285C16.0019 13.6777 15.9882 13.6367 15.9609 13.6054C15.9375 13.5742 15.8984 13.5527 15.8437 13.541L13.746 13.1132C13.707 13.0976 13.6718 13.0957 13.6406 13.1074C13.6132 13.1152 13.5839 13.1367 13.5527 13.1718L11.7714 14.9707Z" fill="#8EC641"/>
</svg>
