<svg width="28" height="28" viewBox="0 0 28 28" fill="none" xmlns="http://www.w3.org/2000/svg">
<path d="M16.9168 4.66699H11.0835L8.16683 8.16699H4.66683C4.04799 8.16699 3.4545 8.41282 3.01691 8.85041C2.57933 9.28799 2.3335 9.88149 2.3335 10.5003V21.0003C2.3335 21.6192 2.57933 22.2127 3.01691 22.6502C3.4545 23.0878 4.04799 23.3337 4.66683 23.3337H23.3335C23.9523 23.3337 24.5458 23.0878 24.9834 22.6502C25.421 22.2127 25.6668 21.6192 25.6668 21.0003V10.5003C25.6668 9.88149 25.421 9.28799 24.9834 8.85041C24.5458 8.41282 23.9523 8.16699 23.3335 8.16699H19.8335L16.9168 4.66699Z" stroke="#8EC641" stroke-width="2" stroke-linecap="round" stroke-linejoin="round"/>
<path d="M14 18.667C15.933 18.667 17.5 17.1 17.5 15.167C17.5 13.234 15.933 11.667 14 11.667C12.067 11.667 10.5 13.234 10.5 15.167C10.5 17.1 12.067 18.667 14 18.667Z" stroke="#8EC641" stroke-width="2" stroke-linecap="round" stroke-linejoin="round"/>
</svg>
