<svg width="35" height="35" viewBox="0 0 35 35" fill="none" xmlns="http://www.w3.org/2000/svg">
<path d="M1.4585 30.6251L17.5002 2.91675L25.521 16.7709L33.5418 30.6251H1.4585ZM6.48975 27.7084H28.5106L17.5002 8.75008L6.48975 27.7084ZM17.5002 26.2501C17.9134 26.2501 18.2597 26.1103 18.5392 25.8308C18.8187 25.5513 18.9585 25.2049 18.9585 24.7917C18.9585 24.3786 18.8187 24.0322 18.5392 23.7527C18.2597 23.4732 17.9134 23.3334 17.5002 23.3334C17.087 23.3334 16.7406 23.4732 16.4611 23.7527C16.1816 24.0322 16.0418 24.3786 16.0418 24.7917C16.0418 25.2049 16.1816 25.5513 16.4611 25.8308C16.7406 26.1103 17.087 26.2501 17.5002 26.2501ZM16.0418 21.8751H18.9585V14.5834H16.0418V21.8751Z" fill="#8EC641"/>
</svg>
