<svg width="32" height="32" viewBox="0 0 32 32" fill="none" xmlns="http://www.w3.org/2000/svg">
<g clip-path="url(#clip0_84_8239)">
<path d="M30.3547 6.08751C29.8675 5.88456 29.3309 5.83121 28.8132 5.93427C28.2956 6.03732 27.8203 6.29211 27.448 6.66618L24 10.1142L17.8853 3.99951C17.3853 3.49959 16.7071 3.21875 16 3.21875C15.2929 3.21875 14.6147 3.49959 14.1147 3.99951L8 10.1142L4.552 6.66618C4.17906 6.29336 3.70396 6.03947 3.18675 5.93663C2.66954 5.83378 2.13345 5.88659 1.64625 6.08837C1.15905 6.29016 0.74262 6.63187 0.449596 7.07029C0.156571 7.50872 0.000112598 8.02418 0 8.55151L0 22.6662C0.00211714 24.4336 0.705176 26.1281 1.95496 27.3779C3.20474 28.6277 4.89921 29.3307 6.66667 29.3329H25.3333C27.1008 29.3307 28.7953 28.6277 30.045 27.3779C31.2948 26.1281 31.9979 24.4336 32 22.6662V8.55151C32.0001 8.02414 31.8439 7.50857 31.551 7.06998C31.2582 6.6314 30.8418 6.2895 30.3547 6.08751Z" fill="#8EC641"/>
</g>
<defs>
<clipPath id="clip0_84_8239">
<rect width="32" height="32" fill="white"/>
</clipPath>
</defs>
</svg>
