<svg width="10" height="14" viewBox="0 0 10 14" fill="none" xmlns="http://www.w3.org/2000/svg">
<path d="M3.75 0.40625C3.49112 0.40625 3.28125 0.616117 3.28125 0.875V1.34375H0.625C0.366117 1.34375 0.15625 1.55362 0.15625 1.8125C0.15625 2.07138 0.366117 2.28125 0.625 2.28125H9.375C9.63388 2.28125 9.84375 2.07138 9.84375 1.8125C9.84375 1.55362 9.63388 1.34375 9.375 1.34375H6.71875V0.875C6.71875 0.616117 6.50888 0.40625 6.25 0.40625H3.75Z" fill="#696974"/>
<path d="M3.75 5.65625C4.00888 5.65625 4.21875 5.86611 4.21875 6.125L4.21875 10.5C4.21875 10.7589 4.00888 10.9687 3.75 10.9687C3.49112 10.9687 3.28125 10.7589 3.28125 10.5L3.28125 6.125C3.28125 5.86611 3.49112 5.65625 3.75 5.65625Z" fill="#696974"/>
<path d="M6.71875 6.125C6.71875 5.86611 6.50888 5.65625 6.25 5.65625C5.99112 5.65625 5.78125 5.86611 5.78125 6.125V10.5C5.78125 10.7589 5.99112 10.9687 6.25 10.9687C6.50888 10.9687 6.71875 10.7589 6.71875 10.5V6.125Z" fill="#696974"/>
<path fill-rule="evenodd" clip-rule="evenodd" d="M1.24464 3.94824C1.27102 3.71084 1.47167 3.53125 1.71052 3.53125H8.28947C8.52832 3.53125 8.72898 3.71084 8.75535 3.94824L8.88045 5.07408C9.10721 7.1149 9.10721 9.17457 8.88045 11.2154L8.86813 11.3262C8.77812 12.1363 8.15028 12.7823 7.34307 12.8953C5.7886 13.1129 4.21139 13.1129 2.65692 12.8953C1.84971 12.7823 1.22187 12.1363 1.13186 11.3262L1.11955 11.2154C0.892788 9.17457 0.892789 7.1149 1.11955 5.07408L1.24464 3.94824ZM2.13007 4.46875L2.05131 5.17761C1.8322 7.14962 1.8322 9.13985 2.05131 11.1119L2.06363 11.2227C2.10632 11.6069 2.40408 11.9132 2.78691 11.9668C4.25514 12.1724 5.74485 12.1724 7.21309 11.9668C7.59592 11.9132 7.89368 11.6069 7.93637 11.2227L7.94868 11.1119C8.16779 9.13985 8.16779 7.14962 7.94868 5.17761L7.86992 4.46875H2.13007Z" fill="#696974"/>
</svg>
