<svg width="32" height="26" viewBox="0 0 32 26" fill="none" xmlns="http://www.w3.org/2000/svg">
<path d="M25.4998 14.5835V11.4168H31.8332V14.5835H25.4998ZM27.3998 25.6668L22.3332 21.8668L24.2332 19.3335L29.2998 23.1335L27.3998 25.6668ZM24.2332 6.66683L22.3332 4.1335L27.3998 0.333496L29.2998 2.86683L24.2332 6.66683ZM4.9165 24.0835V17.7502H3.33317C2.46234 17.7502 1.71685 17.4401 1.09671 16.82C0.476573 16.1998 0.166504 15.4543 0.166504 14.5835V11.4168C0.166504 10.546 0.476573 9.80051 1.09671 9.18037C1.71685 8.56023 2.46234 8.25016 3.33317 8.25016H9.6665L17.5832 3.50016V22.5002L9.6665 17.7502H8.08317V24.0835H4.9165ZM14.4165 16.8793V9.121L10.5373 11.4168H3.33317V14.5835H10.5373L14.4165 16.8793ZM19.1665 18.3043V7.696C19.879 8.32933 20.453 9.1012 20.8884 10.0116C21.3238 10.922 21.5415 11.9182 21.5415 13.0002C21.5415 14.0821 21.3238 15.0783 20.8884 15.9887C20.453 16.8991 19.879 17.671 19.1665 18.3043Z" fill="#8EC641"/>
</svg>
