<svg width="21" height="21" viewBox="0 0 21 21" fill="none" xmlns="http://www.w3.org/2000/svg">
<path fill-rule="evenodd" clip-rule="evenodd" d="M11.6843 7.65625H3.5C3.13756 7.65625 2.84375 7.36244 2.84375 7C2.84375 6.63756 3.13756 6.34375 3.5 6.34375H11.6843C11.97 5.33378 12.8986 4.59375 14 4.59375C15.1014 4.59375 16.03 5.33378 16.3157 6.34375H17.5C17.8624 6.34375 18.1562 6.63756 18.1562 7C18.1562 7.36244 17.8624 7.65625 17.5 7.65625H16.3157C16.03 8.66622 15.1014 9.40625 14 9.40625C12.8986 9.40625 11.97 8.66622 11.6843 7.65625ZM12.9062 7C12.9062 6.39594 13.3959 5.90625 14 5.90625C14.6041 5.90625 15.0938 6.39594 15.0938 7C15.0938 7.60406 14.6041 8.09375 14 8.09375C13.3959 8.09375 12.9062 7.60406 12.9062 7Z" fill="#8EC641"/>
<path fill-rule="evenodd" clip-rule="evenodd" d="M9.31567 14.6562H17.5C17.8624 14.6562 18.1562 14.3624 18.1562 14C18.1562 13.6376 17.8624 13.3438 17.5 13.3438H9.31567C9.03002 12.3338 8.10143 11.5938 7 11.5938C5.89857 11.5938 4.96998 12.3338 4.68433 13.3438H3.5C3.13756 13.3438 2.84375 13.6376 2.84375 14C2.84375 14.3624 3.13756 14.6562 3.5 14.6562H4.68433C4.96998 15.6662 5.89857 16.4062 7 16.4062C8.10143 16.4062 9.03002 15.6662 9.31567 14.6562ZM5.90625 14C5.90625 13.3959 6.39594 12.9062 7 12.9062C7.60406 12.9062 8.09375 13.3959 8.09375 14C8.09375 14.6041 7.60406 15.0938 7 15.0938C6.39594 15.0938 5.90625 14.6041 5.90625 14Z" fill="#8EC641"/>
</svg>
