<svg width="25" height="26" viewBox="0 0 25 26" fill="none" xmlns="http://www.w3.org/2000/svg">
<g clip-path="url(#clip0_23_22749)">
<path d="M2.59608 26C1.88244 26 1.26995 25.7342 0.758597 25.2026C0.252866 24.6709 0 24.0342 0 23.2922V3.27739C0 2.53545 0.252866 1.89867 0.758597 1.36704C1.26995 0.835414 1.88244 0.5696 2.59608 0.5696H15.1045V2.81295H2.59608C2.46685 2.81295 2.36008 2.85676 2.27579 2.94439C2.19712 3.03203 2.15778 3.14302 2.15778 3.27739V23.2922C2.15778 23.4266 2.19712 23.5376 2.27579 23.6252C2.36008 23.7129 2.46685 23.7567 2.59608 23.7567H21.8475C21.9768 23.7567 22.0835 23.7129 22.1678 23.6252C22.2521 23.5376 22.2943 23.4266 22.2943 23.2922V10.2966H24.4521V23.2922C24.4521 24.0342 24.1964 24.6709 23.6851 25.2026C23.1793 25.7342 22.5668 26 21.8475 26H2.59608ZM19.968 8.21976V5.23156H17.0937V2.98821H19.968V0H22.1257V2.98821H25V5.23156H22.1257V8.21976H19.968ZM4.66958 20.3916H19.8837L15.155 13.8281L11.1177 19.2963L8.24341 15.4668L4.66958 20.3916ZM2.15778 2.81295V7.29964V10.2966V23.2922V3.27739V2.94439V2.81295Z" fill="#7E8A8C"/>
</g>
<defs>
<clipPath id="clip0_23_22749">
<rect width="25" height="26" fill="white"/>
</clipPath>
</defs>
</svg>
