<svg width="37" height="37" viewBox="0 0 37 37" fill="none" xmlns="http://www.w3.org/2000/svg">
<path d="M9.25 33.917C11.8043 33.917 13.875 31.8463 13.875 29.292C13.875 26.7377 11.8043 24.667 9.25 24.667C6.69568 24.667 4.625 26.7377 4.625 29.292C4.625 31.8463 6.69568 33.917 9.25 33.917Z" stroke="#8EC641" stroke-width="3" stroke-linecap="round" stroke-linejoin="round"/>
<path d="M13.875 29.2913H26.9792C28.4102 29.2913 29.7827 28.7228 30.7946 27.7109C31.8065 26.699 32.375 25.3266 32.375 23.8955C32.375 22.4644 31.8065 21.092 30.7946 20.0801C29.7827 19.0682 28.4102 18.4997 26.9792 18.4997H10.0208C8.58977 18.4997 7.21732 17.9312 6.2054 16.9193C5.19349 15.9074 4.625 14.5349 4.625 13.1038C4.625 11.6728 5.19349 10.3003 6.2054 9.28841C7.21732 8.2765 8.58977 7.70801 10.0208 7.70801H23.125" stroke="#8EC641" stroke-width="3" stroke-linecap="round" stroke-linejoin="round"/>
<path d="M27.75 12.333C30.3043 12.333 32.375 10.2623 32.375 7.70801C32.375 5.15369 30.3043 3.08301 27.75 3.08301C25.1957 3.08301 23.125 5.15369 23.125 7.70801C23.125 10.2623 25.1957 12.333 27.75 12.333Z" stroke="#8EC641" stroke-width="3" stroke-linecap="round" stroke-linejoin="round"/>
</svg>
