<svg width="22" height="21" viewBox="0 0 22 21" fill="none" xmlns="http://www.w3.org/2000/svg">
<path d="M15.6222 0.0370775C19.1692 0.0248949 21.5613 2.39469 21.5734 5.93367L21.6015 14.1006C21.6136 17.6396 19.2379 20.0248 15.6898 20.037L6.61492 20.0681C3.06683 20.0803 0.674785 17.7115 0.66263 14.1725L0.63458 6.00559C0.622425 2.46661 2.99814 0.0804354 6.54623 0.0682493L15.6222 0.0370775ZM7.8018 7.46298C6.30048 7.46814 5.08271 8.63933 5.08764 10.0733C5.09256 11.5083 6.31835 12.6711 7.81967 12.6659C9.04668 12.6617 10.0721 11.8742 10.4076 10.805L12.6188 10.7975L12.6226 11.8994C12.624 12.3134 12.9769 12.6482 13.4103 12.6467C13.8438 12.6453 14.1944 12.3081 14.193 11.8941L14.1892 10.7921L15.5816 10.7873L15.5854 11.8893C15.5868 12.3033 15.9397 12.6381 16.3732 12.6366C16.8066 12.6351 17.1572 12.2979 17.1558 11.8839L17.1495 10.0319C17.148 9.61789 16.7951 9.2831 16.3617 9.28459L10.4025 9.30506C10.0596 8.23923 9.02881 7.45877 7.8018 7.46298ZM7.80705 8.96287C8.44255 8.96069 8.96248 9.45291 8.96457 10.0609C8.96665 10.6679 8.45012 11.1637 7.81462 11.1659C7.17913 11.168 6.65919 10.6758 6.65711 10.0688C6.65502 9.46083 7.17156 8.96505 7.80705 8.96287Z" fill="#8EC641"/>
</svg>
