<svg width="32" height="29" viewBox="0 0 32 29" fill="none" xmlns="http://www.w3.org/2000/svg">
<path d="M3.48786 28.8C2.62766 28.8 1.89128 28.4897 1.27871 27.8692C0.666147 27.2486 0.359863 26.5026 0.359863 25.6311V3.44892C0.359863 2.57747 0.666147 1.83146 1.27871 1.21089C1.89128 0.590316 2.62766 0.280029 3.48786 0.280029H28.5119C29.3721 0.280029 30.1084 0.590316 30.721 1.21089C31.3336 1.83146 31.6399 2.57747 31.6399 3.44892V25.6311C31.6399 26.5026 31.3336 27.2486 30.721 27.8692C30.1084 28.4897 29.3721 28.8 28.5119 28.8H3.48786ZM3.48786 25.6311H28.5119V3.44892H3.48786V25.6311ZM5.05186 22.4623H12.8719V19.2934H5.05186V22.4623ZM19.9881 19.2934L27.7299 11.4504L25.5012 9.19253L19.9881 14.8173L17.7594 12.5595L15.5698 14.8173L19.9881 19.2934ZM5.05186 16.1245H12.8719V12.9556H5.05186V16.1245ZM5.05186 9.7867H12.8719V6.61781H5.05186V9.7867Z" fill="#8EC641"/>
</svg>
