<svg width="31" height="31" viewBox="0 0 31 31" fill="none" xmlns="http://www.w3.org/2000/svg">
<path d="M20.6668 27.125V24.5417C20.6668 23.1714 20.1225 21.8572 19.1535 20.8883C18.1846 19.9193 16.8704 19.375 15.5002 19.375H7.75016C6.37988 19.375 5.06572 19.9193 4.09678 20.8883C3.12784 21.8572 2.5835 23.1714 2.5835 24.5417V27.125" stroke="#8EC641" stroke-width="3" stroke-linecap="round" stroke-linejoin="round"/>
<path d="M11.6252 14.2083C14.4786 14.2083 16.7918 11.8951 16.7918 9.04167C16.7918 6.1882 14.4786 3.875 11.6252 3.875C8.77169 3.875 6.4585 6.1882 6.4585 9.04167C6.4585 11.8951 8.77169 14.2083 11.6252 14.2083Z" stroke="#8EC641" stroke-width="3" stroke-linecap="round" stroke-linejoin="round"/>
<path d="M28.4165 27.1251V24.5417C28.4156 23.397 28.0346 22.2849 27.3333 21.3801C26.6319 20.4754 25.6499 19.8292 24.5415 19.543" stroke="#8EC641" stroke-width="3" stroke-linecap="round" stroke-linejoin="round"/>
<path d="M20.6665 4.04297C21.7779 4.32752 22.7629 4.97387 23.4664 5.88012C24.1698 6.78637 24.5516 7.90096 24.5516 9.04818C24.5516 10.1954 24.1698 11.31 23.4664 12.2162C22.7629 13.1225 21.7779 13.7688 20.6665 14.0534" stroke="#8EC641" stroke-width="3" stroke-linecap="round" stroke-linejoin="round"/>
</svg>
