<svg width="18" height="18" viewBox="0 0 18 18" fill="none" xmlns="http://www.w3.org/2000/svg">
<path fill-rule="evenodd" clip-rule="evenodd" d="M6.9426 4.49856H3.65332L12.54 1.26406C12.832 1.1578 13.1548 1.30832 13.261 1.60025L14.3159 4.49856H13.1187L12.3962 2.5136L6.9426 4.49856Z" fill="#929292"/>
<path fill-rule="evenodd" clip-rule="evenodd" d="M16.3125 4.5C16.3125 4.34467 16.2576 4.21209 16.1477 4.10225C16.0379 3.99242 15.9053 3.9375 15.75 3.9375H2.25C2.09467 3.9375 1.96209 3.99242 1.85225 4.10225C1.74242 4.21209 1.6875 4.34467 1.6875 4.5V7.62803C1.6875 7.74723 1.72191 7.85549 1.79074 7.95281C1.85956 8.05013 1.95016 8.11866 2.06255 8.15837C2.39462 8.27574 2.66413 8.47827 2.87109 8.76595C3.08203 9.05917 3.1875 9.38719 3.1875 9.75C3.1875 10.1128 3.08203 10.4408 2.87109 10.734C2.66413 11.0217 2.39462 11.2243 2.06255 11.3416C1.95016 11.3813 1.85956 11.4499 1.79074 11.5472C1.72191 11.6445 1.6875 11.7528 1.6875 11.872V15C1.6875 15.1553 1.74242 15.2879 1.85225 15.3977C1.96209 15.5075 2.09467 15.5625 2.25 15.5625H15.75C15.9053 15.5625 16.0379 15.5075 16.1477 15.3977C16.2576 15.2879 16.3125 15.1553 16.3125 15V11.872C16.3125 11.7528 16.2781 11.6445 16.2093 11.5472C16.1404 11.4499 16.0499 11.3813 15.9375 11.3416C15.6054 11.2243 15.3359 11.0217 15.1289 10.734C14.9179 10.4408 14.8125 10.1128 14.8125 9.75C14.8125 9.38719 14.9179 9.05917 15.1289 8.76595C15.3359 8.47827 15.6054 8.27574 15.9375 8.15837C16.0499 8.11866 16.1404 8.05013 16.2093 7.95281C16.2781 7.85549 16.3125 7.74723 16.3125 7.62803V4.5ZM15.1875 5.0625H2.8125V7.26015C3.19752 7.46063 3.52146 7.74357 3.78433 8.10898C4.13644 8.59844 4.3125 9.14544 4.3125 9.75C4.3125 10.3546 4.13644 10.9016 3.78433 11.391C3.52146 11.7564 3.19752 12.0394 2.8125 12.2399V14.4375H15.1875V12.2399C14.8025 12.0394 14.4786 11.7564 14.2157 11.391C13.8636 10.9016 13.6875 10.3546 13.6875 9.75C13.6875 9.14544 13.8636 8.59844 14.2157 8.10898C14.4786 7.74357 14.8025 7.46063 15.1875 7.26015V5.0625Z" fill="#929292"/>
<path fill-rule="evenodd" clip-rule="evenodd" d="M7.3125 6V7.5H6.1875V6H7.3125Z" fill="#929292"/>
<path fill-rule="evenodd" clip-rule="evenodd" d="M7.3125 12V13.5H6.1875V12H7.3125Z" fill="#929292"/>
<path fill-rule="evenodd" clip-rule="evenodd" d="M7.3125 9V10.5H6.1875V9H7.3125Z" fill="#929292"/>
</svg>
