<svg width="32" height="27" viewBox="0 0 32 27" fill="none" xmlns="http://www.w3.org/2000/svg">
<path d="M10.9515 24.75C11.673 24.75 12.2579 24.2463 12.2579 23.625C12.2579 23.0037 11.673 22.5 10.9515 22.5C10.2299 22.5 9.64502 23.0037 9.64502 23.625C9.64502 24.2463 10.2299 24.75 10.9515 24.75Z" stroke="#8EC641" stroke-width="2" stroke-linecap="round" stroke-linejoin="round"/>
<path d="M25.3226 24.75C26.0441 24.75 26.629 24.2463 26.629 23.625C26.629 23.0037 26.0441 22.5 25.3226 22.5C24.601 22.5 24.0161 23.0037 24.0161 23.625C24.0161 24.2463 24.601 24.75 25.3226 24.75Z" stroke="#8EC641" stroke-width="2" stroke-linecap="round" stroke-linejoin="round"/>
<path d="M3.17822 2.30615H5.79113L9.26629 16.2787C9.39377 16.7904 9.72442 17.2478 10.2013 17.5722C10.6782 17.8967 11.2716 18.0678 11.8792 18.0561H24.6563C25.251 18.0553 25.8275 17.8799 26.2907 17.5587C26.7539 17.2376 27.076 16.79 27.2039 16.2899L29.3595 7.93115H7.18903" stroke="#8EC641" stroke-width="2" stroke-linecap="round" stroke-linejoin="round"/>
</svg>
