<svg width="19" height="29" viewBox="0 0 19 29" fill="none" xmlns="http://www.w3.org/2000/svg">
<path d="M12.1594 28.375L1.79167 17.5833V14.5H7.1875C8.54931 14.5 9.72483 14.0568 10.7141 13.1703C11.7033 12.2839 12.3007 11.1854 12.5063 9.875H0.25V6.79167H12.0437C11.6069 5.89236 10.9582 5.15365 10.0974 4.57552C9.23663 3.9974 8.26667 3.70833 7.1875 3.70833H0.25V0.625H18.75V3.70833H13.7396C14.0993 4.14514 14.4205 4.62049 14.7031 5.13438C14.9858 5.64826 15.2042 6.20069 15.3583 6.79167H18.75V9.875H15.6281C15.4226 12.059 14.5233 13.8898 12.9302 15.3672C11.3372 16.8446 9.42292 17.5833 7.1875 17.5833H6.06979L16.4375 28.375H12.1594Z" fill="#8EC641"/>
</svg>
