<svg width="25" height="33" viewBox="0 0 25 33" fill="none" xmlns="http://www.w3.org/2000/svg">
<g clip-path="url(#clip0_35_26443)">
<path d="M6.08187 26.4855H18.2456V23.8797H6.08187V26.4855ZM6.08187 19.5435H18.2456V16.9377H6.08187V19.5435ZM2.93641 33C2.11281 33 1.41594 32.6981 0.84576 32.0941C0.28192 31.4833 0 30.7403 0 29.8649V3.13511C0 2.25971 0.28192 1.52005 0.84576 0.916101C1.41594 0.305366 2.11281 0 2.93641 0H15.8129L24.3275 9.12029V29.8649C24.3275 30.7403 24.0424 31.4833 23.4723 32.0941C22.9084 32.6981 22.2147 33 21.3912 33H2.93641ZM14.5965 10.4232V2.6058H2.93641C2.80969 2.6058 2.6925 2.66009 2.5848 2.76866C2.48343 2.87724 2.43275 2.99938 2.43275 3.13511V29.8649C2.43275 30.0006 2.48343 30.1227 2.5848 30.2313C2.6925 30.3398 2.80969 30.3942 2.93641 30.3942H21.3912C21.5178 30.3942 21.6318 30.3398 21.7332 30.2313C21.8409 30.1227 21.8947 30.0006 21.8947 29.8649V10.4232H14.5965ZM2.43275 10.4232V29.8649V3.13511V2.76866" fill="#8EC641"/>
</g>
<defs>
<clipPath id="clip0_35_26443">
<rect width="24.3275" height="33" fill="white"/>
</clipPath>
</defs>
</svg>
