<svg width="39" height="39" viewBox="0 0 39 39" fill="none" xmlns="http://www.w3.org/2000/svg">
<path d="M19.5 35.75V21.125" stroke="#8EC641" stroke-width="2.5" stroke-linecap="round" stroke-linejoin="round"/>
<path d="M24.6512 3.5912C25.0559 3.36491 25.5119 3.24609 25.9756 3.24609C26.4393 3.24609 26.8952 3.36491 27.3 3.5912L34.125 7.4262C34.6083 7.69953 35.0105 8.09629 35.2902 8.57593C35.57 9.05558 35.7175 9.60091 35.7175 10.1562C35.7175 10.7115 35.57 11.2568 35.2902 11.7365C35.0105 12.2161 34.6083 12.6129 34.125 12.8862L14.3325 24.0337C13.9265 24.2652 13.4673 24.387 13 24.387C12.5327 24.387 12.0734 24.2652 11.6675 24.0337L4.87497 20.1987C4.39161 19.9254 3.98949 19.5286 3.70969 19.049C3.4299 18.5693 3.28247 18.024 3.28247 17.4687C3.28247 16.9134 3.4299 16.3681 3.70969 15.8884C3.98949 15.4088 4.39161 15.012 4.87497 14.7387L24.6512 3.5912Z" stroke="#8EC641" stroke-width="2.5" stroke-linecap="round" stroke-linejoin="round"/>
<path d="M32.5 21.125V27.4138C32.5006 28.0271 32.3327 28.6288 32.0146 29.1533C31.6966 29.6777 31.2405 30.1046 30.6963 30.3875L20.9463 35.3925C20.4995 35.6247 20.0035 35.7459 19.5 35.7459C18.9965 35.7459 18.5005 35.6247 18.0538 35.3925L8.30375 30.3875C7.75951 30.1046 7.30345 29.6777 6.98536 29.1533C6.66726 28.6288 6.49937 28.0271 6.5 27.4138V21.125" stroke="#8EC641" stroke-width="2.5" stroke-linecap="round" stroke-linejoin="round"/>
<path d="M34.125 20.1988C34.6083 19.9254 35.0105 19.5287 35.2902 19.049C35.57 18.5694 35.7175 18.0241 35.7175 17.4688C35.7175 16.9135 35.57 16.3682 35.2902 15.8885C35.0105 15.4089 34.6083 15.0121 34.125 14.7388L14.3487 3.57503C13.9455 3.34413 13.489 3.22266 13.0243 3.22266C12.5597 3.22266 12.1032 3.34413 11.7 3.57503L4.87497 7.42628C4.39161 7.6996 3.98949 8.09637 3.70969 8.57601C3.4299 9.05566 3.28247 9.60099 3.28247 10.1563C3.28247 10.7116 3.4299 11.2569 3.70969 11.7365C3.98949 12.2162 4.39161 12.6129 4.87497 12.8863L24.6675 24.0338C25.0705 24.2653 25.5271 24.3871 25.9918 24.3871C26.4566 24.3871 26.9132 24.2653 27.3162 24.0338L34.125 20.1988Z" stroke="#8EC641" stroke-width="2.5" stroke-linecap="round" stroke-linejoin="round"/>
</svg>
