<svg width="40" height="40" viewBox="0 0 40 40" fill="none" xmlns="http://www.w3.org/2000/svg">
<path d="M33.3333 13.3333H6.66667C5.74619 13.3333 5 14.0794 5 14.9999V18.3333C5 19.2537 5.74619 19.9999 6.66667 19.9999H33.3333C34.2538 19.9999 35 19.2537 35 18.3333V14.9999C35 14.0794 34.2538 13.3333 33.3333 13.3333Z" stroke="#8EC641" stroke-width="3" stroke-linecap="round" stroke-linejoin="round"/>
<path d="M20 13.3333V34.9999" stroke="#8EC641" stroke-width="3" stroke-linecap="round" stroke-linejoin="round"/>
<path d="M31.6668 20V31.6667C31.6668 32.5507 31.3156 33.3986 30.6905 34.0237C30.0654 34.6488 29.2176 35 28.3335 35H11.6668C10.7828 35 9.93493 34.6488 9.30981 34.0237C8.68469 33.3986 8.3335 32.5507 8.3335 31.6667V20" stroke="#8EC641" stroke-width="3" stroke-linecap="round" stroke-linejoin="round"/>
<path d="M12.5002 13.3333C11.3951 13.3333 10.3353 12.8943 9.55388 12.1129C8.77248 11.3315 8.3335 10.2717 8.3335 9.16666C8.3335 8.06159 8.77248 7.00179 9.55388 6.22038C10.3353 5.43898 11.3951 5 12.5002 5C14.108 4.97198 15.6835 5.7521 17.0214 7.2386C18.3592 8.7251 19.3973 10.849 20.0002 13.3333C20.603 10.849 21.6411 8.7251 22.9789 7.2386C24.3168 5.7521 25.8924 4.97198 27.5002 5C28.6052 5 29.665 5.43898 30.4464 6.22038C31.2278 7.00179 31.6668 8.06159 31.6668 9.16666C31.6668 10.2717 31.2278 11.3315 30.4464 12.1129C29.665 12.8943 28.6052 13.3333 27.5002 13.3333" stroke="#8EC641" stroke-width="3" stroke-linecap="round" stroke-linejoin="round"/>
</svg>
