<svg width="20" height="20" viewBox="0 0 20 20" fill="none" xmlns="http://www.w3.org/2000/svg">
<path fill-rule="evenodd" clip-rule="evenodd" d="M15.7221 4.26977C16.0863 4.39727 16.3296 4.7406 16.3296 5.12643V10.7706C16.3296 12.3481 15.7563 13.8539 14.7438 15.0206C14.2346 15.6081 13.5905 16.0656 12.9063 16.4356L9.9413 18.0373L6.9713 16.4348C6.2863 16.0648 5.6413 15.6081 5.1313 15.0198C4.11797 13.8531 3.54297 12.3464 3.54297 10.7673V5.12643C3.54297 4.7406 3.7863 4.39727 4.15047 4.26977L9.63547 2.34227C9.83047 2.27393 10.043 2.27393 10.2371 2.34227L15.7221 4.26977Z" stroke="#8EC641" stroke-width="1.5" stroke-linecap="round" stroke-linejoin="round"/>
<path opacity="0.4" d="M7.76953 9.93158L9.3462 11.5091L12.5945 8.26074" stroke="#8EC641" stroke-width="1.5" stroke-linecap="round" stroke-linejoin="round"/>
</svg>
