<svg width="37" height="37" viewBox="0 0 37 37" fill="none" xmlns="http://www.w3.org/2000/svg">
<path d="M4.625 4.625V29.2917C4.625 30.1094 4.94985 30.8937 5.52809 31.4719C6.10632 32.0501 6.89058 32.375 7.70833 32.375H32.375" stroke="#8EC641" stroke-width="3" stroke-linecap="round" stroke-linejoin="round"/>
<path d="M27.75 7.7085H24.6667C23.8152 7.7085 23.125 8.39872 23.125 9.25016V24.6668C23.125 25.5183 23.8152 26.2085 24.6667 26.2085H27.75C28.6014 26.2085 29.2917 25.5183 29.2917 24.6668V9.25016C29.2917 8.39872 28.6014 7.7085 27.75 7.7085Z" stroke="#8EC641" stroke-width="3" stroke-linecap="round" stroke-linejoin="round"/>
<path d="M15.4165 12.3335H12.3332C11.4817 12.3335 10.7915 13.0237 10.7915 13.8752V24.6668C10.7915 25.5183 11.4817 26.2085 12.3332 26.2085H15.4165C16.2679 26.2085 16.9582 25.5183 16.9582 24.6668V13.8752C16.9582 13.0237 16.2679 12.3335 15.4165 12.3335Z" stroke="#8EC641" stroke-width="3" stroke-linecap="round" stroke-linejoin="round"/>
</svg>
