<svg width="108" height="108" viewBox="0 0 108 108" fill="none" xmlns="http://www.w3.org/2000/svg">
<circle cx="54" cy="54" r="54" fill="#8EC641" fill-opacity="0.12"/>
<path d="M53.0356 28.2856C38.867 28.2856 27.3213 39.8314 27.3213 53.9999C27.3213 68.1685 38.867 79.7142 53.0356 79.7142C67.2041 79.7142 78.7499 68.1685 78.7499 53.9999C78.7499 39.8314 67.2041 28.2856 53.0356 28.2856ZM65.327 48.0856L50.747 62.6656C50.387 63.0256 49.8984 63.2314 49.3841 63.2314C48.8699 63.2314 48.3813 63.0256 48.0213 62.6656L40.7441 55.3885C39.9984 54.6428 39.9984 53.4085 40.7441 52.6628C41.4899 51.9171 42.7241 51.9171 43.4699 52.6628L49.3841 58.5771L62.6013 45.3599C63.347 44.6142 64.5813 44.6142 65.327 45.3599C66.0727 46.1056 66.0727 47.3142 65.327 48.0856Z" fill="#8EC641"/>
</svg>
