<svg width="37" height="37" viewBox="0 0 37 37" fill="none" xmlns="http://www.w3.org/2000/svg">
<path d="M7.70833 32.3753C6.86042 32.3753 6.13455 32.0734 5.53073 31.4696C4.92691 30.8658 4.625 30.1399 4.625 29.292V7.70866C4.625 6.86074 4.92691 6.13487 5.53073 5.53105C6.13455 4.92724 6.86042 4.62533 7.70833 4.62533H14.1833C14.5174 3.70033 15.0762 2.95519 15.8599 2.38991C16.6436 1.82463 17.5236 1.54199 18.5 1.54199C19.4764 1.54199 20.3564 1.82463 21.1401 2.38991C21.9238 2.95519 22.4826 3.70033 22.8167 4.62533H29.2917C30.1396 4.62533 30.8655 4.92724 31.4693 5.53105C32.0731 6.13487 32.375 6.86074 32.375 7.70866V29.292C32.375 30.1399 32.0731 30.8658 31.4693 31.4696C30.8655 32.0734 30.1396 32.3753 29.2917 32.3753H7.70833ZM7.70833 29.292H29.2917V7.70866H7.70833V29.292ZM10.7917 26.2087H21.5833V23.1253H10.7917V26.2087ZM10.7917 20.042H26.2083V16.9587H10.7917V20.042ZM10.7917 13.8753H26.2083V10.792H10.7917V13.8753ZM18.5 6.55241C18.834 6.55241 19.1102 6.44321 19.3286 6.2248C19.547 6.0064 19.6562 5.73019 19.6562 5.39616C19.6562 5.06213 19.547 4.78592 19.3286 4.56751C19.1102 4.34911 18.834 4.23991 18.5 4.23991C18.166 4.23991 17.8898 4.34911 17.6714 4.56751C17.453 4.78592 17.3438 5.06213 17.3438 5.39616C17.3438 5.73019 17.453 6.0064 17.6714 6.2248C17.8898 6.44321 18.166 6.55241 18.5 6.55241Z" fill="#8EC641"/>
</svg>
