<svg width="28" height="27" viewBox="0 0 28 27" fill="none" xmlns="http://www.w3.org/2000/svg">
<path d="M17.375 2.25H10.625C10.0037 2.25 9.5 2.75368 9.5 3.375V5.625C9.5 6.24632 10.0037 6.75 10.625 6.75H17.375C17.9963 6.75 18.5 6.24632 18.5 5.625V3.375C18.5 2.75368 17.9963 2.25 17.375 2.25Z" stroke="#8EC641" stroke-width="2" stroke-linecap="round" stroke-linejoin="round"/>
<path d="M18.5 4.5H20.75C21.3467 4.5 21.919 4.73705 22.341 5.15901C22.7629 5.58097 23 6.15326 23 6.75V22.5C23 23.0967 22.7629 23.669 22.341 24.091C21.919 24.5129 21.3467 24.75 20.75 24.75H7.25C6.65326 24.75 6.08097 24.5129 5.65901 24.091C5.23705 23.669 5 23.0967 5 22.5V6.75C5 6.15326 5.23705 5.58097 5.65901 5.15901C6.08097 4.73705 6.65326 4.5 7.25 4.5H9.5" stroke="#8EC641" stroke-width="2" stroke-linecap="round" stroke-linejoin="round"/>
<path d="M14 12.375H18.5" stroke="#8EC641" stroke-width="2" stroke-linecap="round" stroke-linejoin="round"/>
<path d="M14 18H18.5" stroke="#8EC641" stroke-width="2" stroke-linecap="round" stroke-linejoin="round"/>
<path d="M9.5 12.375H9.51125" stroke="#8EC641" stroke-width="2" stroke-linecap="round" stroke-linejoin="round"/>
<path d="M9.5 18H9.51125" stroke="#8EC641" stroke-width="2" stroke-linecap="round" stroke-linejoin="round"/>
</svg>
