<svg width="14" height="14" viewBox="0 0 14 14" fill="none" xmlns="http://www.w3.org/2000/svg">
<g clip-path="url(#clip0_31_25713)">
<path d="M10.5 11.667C10.5 10.7387 10.1313 9.8485 9.47487 9.19212C8.8185 8.53574 7.92826 8.16699 7 8.16699C6.07174 8.16699 5.1815 8.53574 4.52513 9.19212C3.86875 9.8485 3.5 10.7387 3.5 11.667" stroke="#929292" stroke-linecap="round" stroke-linejoin="round"/>
<path d="M6.99996 8.16667C8.28862 8.16667 9.33329 7.122 9.33329 5.83333C9.33329 4.54467 8.28862 3.5 6.99996 3.5C5.71129 3.5 4.66663 4.54467 4.66663 5.83333C4.66663 7.122 5.71129 8.16667 6.99996 8.16667Z" stroke="#929292" stroke-linecap="round" stroke-linejoin="round"/>
<path d="M6.99996 12.8337C10.2216 12.8337 12.8333 10.222 12.8333 7.00033C12.8333 3.77866 10.2216 1.16699 6.99996 1.16699C3.7783 1.16699 1.16663 3.77866 1.16663 7.00033C1.16663 10.222 3.7783 12.8337 6.99996 12.8337Z" stroke="#929292" stroke-linecap="round" stroke-linejoin="round"/>
</g>
<defs>
<clipPath id="clip0_31_25713">
<rect width="14" height="14" fill="white"/>
</clipPath>
</defs>
</svg>
