<svg width="10" height="13" viewBox="0 0 10 13" fill="none" xmlns="http://www.w3.org/2000/svg">
<g clip-path="url(#clip0_1_10658)">
<path d="M1.20703 12.6641C0.868488 12.6641 0.582031 12.5482 0.347656 12.3164C0.115886 12.082 0 11.7969 0 11.461V1.20313C0 0.867184 0.115886 0.583334 0.347656 0.351562C0.582031 0.117187 0.868488 0 1.20703 0H6.5L10 3.5V11.461C10 11.7969 9.8828 12.082 9.6484 12.3164C9.41664 12.5482 9.13152 12.6641 8.79296 12.6641H1.20703ZM6 4V1H1.20703C1.15494 1 1.10677 1.02083 1.0625 1.0625C1.02083 1.10417 1 1.15104 1 1.20313V11.461C1 11.513 1.02083 11.5599 1.0625 11.6016C1.10677 11.6432 1.15494 11.6641 1.20703 11.6641H8.79296C8.84504 11.6641 8.89192 11.6432 8.9336 11.6016C8.97784 11.5599 9 11.513 9 11.461V4H6ZM1 4V11.461V1.20313V1.0625" fill="#44444F" fill-opacity="0.54"/>
</g>
<defs>
<clipPath id="clip0_1_10658">
<rect width="10" height="12.6641" fill="white"/>
</clipPath>
</defs>
</svg>
