<svg width="12" height="12" viewBox="0 0 12 12" fill="none" xmlns="http://www.w3.org/2000/svg">
<g clip-path="url(#clip0_84_8230)">
<path d="M11.4711 3.41877L10.3801 2.32727L10.8536 1.85377C10.9013 1.80765 10.9394 1.75247 10.9656 1.69147C10.9918 1.63047 11.0056 1.56486 11.0062 1.49847C11.0068 1.43208 10.9941 1.36624 10.969 1.30479C10.9438 1.24334 10.9067 1.18752 10.8597 1.14057C10.8128 1.09363 10.757 1.0565 10.6955 1.03136C10.6341 1.00622 10.5682 0.993567 10.5019 0.994144C10.4355 0.994721 10.3699 1.00851 10.3088 1.03472C10.2478 1.06092 10.1927 1.09901 10.1466 1.14677L9.67305 1.62027L8.58155 0.529269C8.23752 0.20143 7.78052 0.0185547 7.3053 0.0185547C6.83008 0.0185547 6.37308 0.20143 6.02905 0.529269C5.86133 0.696852 5.72828 0.895844 5.6375 1.11487C5.54672 1.3339 5.5 1.56867 5.5 1.80577C5.5 2.04286 5.54672 2.27764 5.6375 2.49667C5.72828 2.71569 5.86133 2.91469 6.02905 3.08227L7.12005 4.17327L4.17305 7.12027L3.08155 6.02927C2.73752 5.70143 2.28052 5.51855 1.8053 5.51855C1.33008 5.51855 0.873083 5.70143 0.529052 6.02927C0.361331 6.19685 0.228279 6.39584 0.137502 6.61487C0.0467241 6.8339 0 7.06867 0 7.30577C0 7.54286 0.0467241 7.77764 0.137502 7.99666C0.228279 8.21569 0.361331 8.41469 0.529052 8.58227L1.62005 9.67327L1.14655 10.1468C1.0988 10.1929 1.06071 10.2481 1.0345 10.3091C1.0083 10.3701 0.994504 10.4357 0.993927 10.5021C0.99335 10.5685 1.006 10.6343 1.03114 10.6957C1.05628 10.7572 1.09341 10.813 1.14035 10.86C1.1873 10.9069 1.24313 10.944 1.30457 10.9692C1.36602 10.9943 1.43186 11.007 1.49825 11.0064C1.56464 11.0058 1.63025 10.992 1.69125 10.9658C1.75226 10.9396 1.80743 10.9015 1.85355 10.8538L2.32705 10.3803L3.41855 11.4713C3.58613 11.6389 3.78509 11.7719 4.00407 11.8626C4.22305 11.9534 4.45777 12.0001 4.6948 12.0001C4.93184 12.0001 5.16655 11.9534 5.38553 11.8626C5.60452 11.7719 5.80348 11.6389 5.97105 11.4713C6.13876 11.3037 6.2718 11.1048 6.36257 10.8858C6.45334 10.6668 6.50006 10.4321 6.50006 10.195C6.50006 9.95796 6.45334 9.72323 6.36257 9.50425C6.2718 9.28526 6.13876 9.08631 5.97105 8.91877L4.88005 7.82777L7.83005 4.88027L8.92105 5.97127C9.08862 6.13892 9.28759 6.2719 9.50657 6.36264C9.72555 6.45337 9.96027 6.50007 10.1973 6.50007C10.4343 6.50007 10.6691 6.45337 10.888 6.36264C11.107 6.2719 11.306 6.13892 11.4736 5.97127C11.6413 5.80373 11.7743 5.60478 11.8651 5.38579C11.9558 5.1668 12.0026 4.93207 12.0026 4.69502C12.0026 4.45796 11.9558 4.22323 11.8651 4.00425C11.7743 3.78526 11.6413 3.58631 11.4736 3.41877H11.4711Z" fill="#8EC641"/>
</g>
<defs>
<clipPath id="clip0_84_8230">
<rect width="12" height="12" fill="white"/>
</clipPath>
</defs>
</svg>
